<svg width="300" height="300" xmlns="http://www.w3.org/2000/svg" xmlns:xlink="http://www.w3.org/1999/xlink"><defs><clippath id="clip-path-dot-color"><circle cx="10" cy="10" r="5"></circle><circle cx="10" cy="20" r="5"></circle><circle cx="10" cy="30" r="5"></circle><circle cx="10" cy="40" r="5"></circle><circle cx="10" cy="50" r="5"></circle><circle cx="10" cy="60" r="5"></circle><circle cx="10" cy="70" r="5"></circle><circle cx="10" cy="90" r="5"></circle><circle cx="10" cy="100" r="5"></circle><circle cx="10" cy="110" r="5"></circle><circle cx="10" cy="120" r="5"></circle><circle cx="10" cy="130" r="5"></circle><circle cx="10" cy="140" r="5"></circle><circle cx="10" cy="150" r="5"></circle><circle cx="10" cy="160" r="5"></circle><circle cx="10" cy="170" r="5"></circle><circle cx="10" cy="180" r="5"></circle><circle cx="10" cy="190" r="5"></circle><circle cx="10" cy="200" r="5"></circle><circle cx="10" cy="210" r="5"></circle><circle cx="10" cy="230" r="5"></circle><circle cx="10" cy="240" r="5"></circle><circle cx="10" cy="250" r="5"></circle><circle cx="10" cy="260" r="5"></circle><circle cx="10" cy="270" r="5"></circle><circle cx="10" cy="280" r="5"></circle><circle cx="10" cy="290" r="5"></circle><circle cx="20" cy="10" r="5"></circle><circle cx="20" cy="70" r="5"></circle><circle cx="20" cy="90" r="5"></circle><circle cx="20" cy="100" r="5"></circle><circle cx="20" cy="110" r="5"></circle><circle cx="20" cy="130" r="5"></circle><circle cx="20" cy="150" r="5"></circle><circle cx="20" cy="160" r="5"></circle><circle cx="20" cy="170" r="5"></circle><circle cx="20" cy="230" r="5"></circle><circle cx="20" cy="290" r="5"></circle><circle cx="30" cy="10" r="5"></circle><circle cx="30" cy="30" r="5"></circle><circle cx="30" cy="40" r="5"></circle><circle cx="30" cy="50" r="5"></circle><circle cx="30" cy="70" r="5"></circle><circle cx="30" cy="90" r="5"></circle><circle cx="30" cy="100" r="5"></circle><circle cx="30" cy="110" r="5"></circle><circle cx="30" cy="120" r="5"></circle><circle cx="30" cy="140" r="5"></circle><circle cx="30" cy="160" r="5"></circle><circle cx="30" cy="180" r="5"></circle><circle cx="30" cy="190" r="5"></circle><circle cx="30" cy="230" r="5"></circle><circle cx="30" cy="250" r="5"></circle><circle cx="30" cy="260" r="5"></circle><circle cx="30" cy="270" r="5"></circle><circle cx="30" cy="290" r="5"></circle><circle cx="40" cy="10" r="5"></circle><circle cx="40" cy="30" r="5"></circle><circle cx="40" cy="40" r="5"></circle><circle cx="40" cy="50" r="5"></circle><circle cx="40" cy="70" r="5"></circle><circle cx="40" cy="90" r="5"></circle><circle cx="40" cy="100" r="5"></circle><circle cx="40" cy="140" r="5"></circle><circle cx="40" cy="150" r="5"></circle><circle cx="40" cy="160" r="5"></circle><circle cx="40" cy="170" r="5"></circle><circle cx="40" cy="180" r="5"></circle><circle cx="40" cy="200" r="5"></circle><circle cx="40" cy="210" r="5"></circle><circle cx="40" cy="230" r="5"></circle><circle cx="40" cy="250" r="5"></circle><circle cx="40" cy="260" r="5"></circle><circle cx="40" cy="270" r="5"></circle><circle cx="40" cy="290" r="5"></circle><circle cx="50" cy="10" r="5"></circle><circle cx="50" cy="30" r="5"></circle><circle cx="50" cy="40" r="5"></circle><circle cx="50" cy="50" r="5"></circle><circle cx="50" cy="70" r="5"></circle><circle cx="50" cy="90" r="5"></circle><circle cx="50" cy="130" r="5"></circle><circle cx="50" cy="140" r="5"></circle><circle cx="50" cy="160" r="5"></circle><circle cx="50" cy="170" r="5"></circle><circle cx="50" cy="200" r="5"></circle><circle cx="50" cy="230" r="5"></circle><circle cx="50" cy="250" r="5"></circle><circle cx="50" cy="260" r="5"></circle><circle cx="50" cy="270" r="5"></circle><circle cx="50" cy="290" r="5"></circle><circle cx="60" cy="10" r="5"></circle><circle cx="60" cy="70" r="5"></circle><circle cx="60" cy="100" r="5"></circle><circle cx="60" cy="130" r="5"></circle><circle cx="60" cy="160" r="5"></circle><circle cx="60" cy="170" r="5"></circle><circle cx="60" cy="200" r="5"></circle><circle cx="60" cy="210" r="5"></circle><circle cx="60" cy="230" r="5"></circle><circle cx="60" cy="290" r="5"></circle><circle cx="70" cy="10" r="5"></circle><circle cx="70" cy="20" r="5"></circle><circle cx="70" cy="30" r="5"></circle><circle cx="70" cy="40" r="5"></circle><circle cx="70" cy="50" r="5"></circle><circle cx="70" cy="60" r="5"></circle><circle cx="70" cy="70" r="5"></circle><circle cx="70" cy="90" r="5"></circle><circle cx="70" cy="110" r="5"></circle><circle cx="70" cy="130" r="5"></circle><circle cx="70" cy="150" r="5"></circle><circle cx="70" cy="170" r="5"></circle><circle cx="70" cy="190" r="5"></circle><circle cx="70" cy="210" r="5"></circle><circle cx="70" cy="230" r="5"></circle><circle cx="70" cy="240" r="5"></circle><circle cx="70" cy="250" r="5"></circle><circle cx="70" cy="260" r="5"></circle><circle cx="70" cy="270" r="5"></circle><circle cx="70" cy="280" r="5"></circle><circle cx="70" cy="290" r="5"></circle><circle cx="80" cy="90" r="5"></circle><circle cx="80" cy="160" r="5"></circle><circle cx="80" cy="190" r="5"></circle><circle cx="80" cy="200" r="5"></circle><circle cx="80" cy="210" r="5"></circle><circle cx="90" cy="20" r="5"></circle><circle cx="90" cy="40" r="5"></circle><circle cx="90" cy="60" r="5"></circle><circle cx="90" cy="70" r="5"></circle><circle cx="90" cy="90" r="5"></circle><circle cx="90" cy="110" r="5"></circle><circle cx="90" cy="120" r="5"></circle><circle cx="90" cy="140" r="5"></circle><circle cx="90" cy="160" r="5"></circle><circle cx="90" cy="220" r="5"></circle><circle cx="90" cy="230" r="5"></circle><circle cx="90" cy="250" r="5"></circle><circle cx="90" cy="260" r="5"></circle><circle cx="90" cy="270" r="5"></circle><circle cx="90" cy="280" r="5"></circle><circle cx="90" cy="290" r="5"></circle><circle cx="100" cy="10" r="5"></circle><circle cx="100" cy="20" r="5"></circle><circle cx="100" cy="30" r="5"></circle><circle cx="100" cy="40" r="5"></circle><circle cx="100" cy="90" r="5"></circle><circle cx="100" cy="100" r="5"></circle><circle cx="100" cy="110" r="5"></circle><circle cx="100" cy="120" r="5"></circle><circle cx="100" cy="130" r="5"></circle><circle cx="100" cy="150" r="5"></circle><circle cx="100" cy="190" r="5"></circle><circle cx="100" cy="210" r="5"></circle><circle cx="100" cy="220" r="5"></circle><circle cx="100" cy="230" r="5"></circle><circle cx="100" cy="290" r="5"></circle><circle cx="110" cy="30" r="5"></circle><circle cx="110" cy="50" r="5"></circle><circle cx="110" cy="60" r="5"></circle><circle cx="110" cy="70" r="5"></circle><circle cx="110" cy="90" r="5"></circle><circle cx="110" cy="120" r="5"></circle><circle cx="110" cy="140" r="5"></circle><circle cx="110" cy="150" r="5"></circle><circle cx="110" cy="160" r="5"></circle><circle cx="110" cy="180" r="5"></circle><circle cx="110" cy="200" r="5"></circle><circle cx="110" cy="220" r="5"></circle><circle cx="110" cy="240" r="5"></circle><circle cx="110" cy="250" r="5"></circle><circle cx="110" cy="270" r="5"></circle><circle cx="110" cy="280" r="5"></circle><circle cx="110" cy="290" r="5"></circle><circle cx="120" cy="20" r="5"></circle><circle cx="120" cy="30" r="5"></circle><circle cx="120" cy="40" r="5"></circle><circle cx="120" cy="110" r="5"></circle><circle cx="120" cy="120" r="5"></circle><circle cx="120" cy="130" r="5"></circle><circle cx="120" cy="190" r="5"></circle><circle cx="120" cy="200" r="5"></circle><circle cx="120" cy="210" r="5"></circle><circle cx="120" cy="270" r="5"></circle><circle cx="120" cy="280" r="5"></circle><circle cx="120" cy="290" r="5"></circle><circle cx="130" cy="20" r="5"></circle><circle cx="130" cy="50" r="5"></circle><circle cx="130" cy="70" r="5"></circle><circle cx="130" cy="80" r="5"></circle><circle cx="130" cy="90" r="5"></circle><circle cx="130" cy="110" r="5"></circle><circle cx="130" cy="140" r="5"></circle><circle cx="130" cy="160" r="5"></circle><circle cx="130" cy="170" r="5"></circle><circle cx="130" cy="190" r="5"></circle><circle cx="130" cy="220" r="5"></circle><circle cx="130" cy="240" r="5"></circle><circle cx="130" cy="250" r="5"></circle><circle cx="130" cy="270" r="5"></circle><circle cx="130" cy="290" r="5"></circle><circle cx="140" cy="10" r="5"></circle><circle cx="140" cy="60" r="5"></circle><circle cx="140" cy="130" r="5"></circle><circle cx="140" cy="140" r="5"></circle><circle cx="140" cy="170" r="5"></circle><circle cx="140" cy="180" r="5"></circle><circle cx="140" cy="230" r="5"></circle><circle cx="140" cy="260" r="5"></circle><circle cx="150" cy="10" r="5"></circle><circle cx="150" cy="30" r="5"></circle><circle cx="150" cy="40" r="5"></circle><circle cx="150" cy="60" r="5"></circle><circle cx="150" cy="70" r="5"></circle><circle cx="150" cy="80" r="5"></circle><circle cx="150" cy="90" r="5"></circle><circle cx="150" cy="100" r="5"></circle><circle cx="150" cy="140" r="5"></circle><circle cx="150" cy="160" r="5"></circle><circle cx="150" cy="170" r="5"></circle><circle cx="150" cy="190" r="5"></circle><circle cx="150" cy="210" r="5"></circle><circle cx="150" cy="220" r="5"></circle><circle cx="150" cy="230" r="5"></circle><circle cx="150" cy="250" r="5"></circle><circle cx="150" cy="280" r="5"></circle><circle cx="160" cy="20" r="5"></circle><circle cx="160" cy="40" r="5"></circle><circle cx="160" cy="60" r="5"></circle><circle cx="160" cy="80" r="5"></circle><circle cx="160" cy="90" r="5"></circle><circle cx="160" cy="100" r="5"></circle><circle cx="160" cy="110" r="5"></circle><circle cx="160" cy="150" r="5"></circle><circle cx="160" cy="170" r="5"></circle><circle cx="160" cy="190" r="5"></circle><circle cx="160" cy="200" r="5"></circle><circle cx="160" cy="230" r="5"></circle><circle cx="160" cy="250" r="5"></circle><circle cx="160" cy="270" r="5"></circle><circle cx="170" cy="50" r="5"></circle><circle cx="170" cy="70" r="5"></circle><circle cx="170" cy="80" r="5"></circle><circle cx="170" cy="90" r="5"></circle><circle cx="170" cy="100" r="5"></circle><circle cx="170" cy="110" r="5"></circle><circle cx="170" cy="140" r="5"></circle><circle cx="170" cy="150" r="5"></circle><circle cx="170" cy="160" r="5"></circle><circle cx="170" cy="180" r="5"></circle><circle cx="170" cy="190" r="5"></circle><circle cx="170" cy="200" r="5"></circle><circle cx="170" cy="210" r="5"></circle><circle cx="170" cy="240" r="5"></circle><circle cx="170" cy="250" r="5"></circle><circle cx="170" cy="260" r="5"></circle><circle cx="170" cy="270" r="5"></circle><circle cx="170" cy="280" r="5"></circle><circle cx="170" cy="290" r="5"></circle><circle cx="180" cy="10" r="5"></circle><circle cx="180" cy="40" r="5"></circle><circle cx="180" cy="50" r="5"></circle><circle cx="180" cy="60" r="5"></circle><circle cx="180" cy="90" r="5"></circle><circle cx="180" cy="110" r="5"></circle><circle cx="180" cy="130" r="5"></circle><circle cx="180" cy="170" r="5"></circle><circle cx="180" cy="210" r="5"></circle><circle cx="180" cy="230" r="5"></circle><circle cx="180" cy="250" r="5"></circle><circle cx="180" cy="260" r="5"></circle><circle cx="180" cy="290" r="5"></circle><circle cx="190" cy="10" r="5"></circle><circle cx="190" cy="40" r="5"></circle><circle cx="190" cy="50" r="5"></circle><circle cx="190" cy="70" r="5"></circle><circle cx="190" cy="140" r="5"></circle><circle cx="190" cy="150" r="5"></circle><circle cx="190" cy="200" r="5"></circle><circle cx="190" cy="220" r="5"></circle><circle cx="190" cy="230" r="5"></circle><circle cx="190" cy="260" r="5"></circle><circle cx="190" cy="270" r="5"></circle><circle cx="190" cy="280" r="5"></circle><circle cx="190" cy="290" r="5"></circle><circle cx="200" cy="10" r="5"></circle><circle cx="200" cy="30" r="5"></circle><circle cx="200" cy="40" r="5"></circle><circle cx="200" cy="50" r="5"></circle><circle cx="200" cy="80" r="5"></circle><circle cx="200" cy="100" r="5"></circle><circle cx="200" cy="120" r="5"></circle><circle cx="200" cy="130" r="5"></circle><circle cx="200" cy="140" r="5"></circle><circle cx="200" cy="180" r="5"></circle><circle cx="200" cy="200" r="5"></circle><circle cx="200" cy="230" r="5"></circle><circle cx="200" cy="240" r="5"></circle><circle cx="200" cy="260" r="5"></circle><circle cx="200" cy="270" r="5"></circle><circle cx="200" cy="280" r="5"></circle><circle cx="200" cy="290" r="5"></circle><circle cx="210" cy="10" r="5"></circle><circle cx="210" cy="20" r="5"></circle><circle cx="210" cy="30" r="5"></circle><circle cx="210" cy="50" r="5"></circle><circle cx="210" cy="60" r="5"></circle><circle cx="210" cy="70" r="5"></circle><circle cx="210" cy="100" r="5"></circle><circle cx="210" cy="120" r="5"></circle><circle cx="210" cy="150" r="5"></circle><circle cx="210" cy="160" r="5"></circle><circle cx="210" cy="180" r="5"></circle><circle cx="210" cy="210" r="5"></circle><circle cx="210" cy="220" r="5"></circle><circle cx="210" cy="230" r="5"></circle><circle cx="210" cy="240" r="5"></circle><circle cx="210" cy="250" r="5"></circle><circle cx="210" cy="280" r="5"></circle><circle cx="220" cy="90" r="5"></circle><circle cx="220" cy="110" r="5"></circle><circle cx="220" cy="140" r="5"></circle><circle cx="220" cy="210" r="5"></circle><circle cx="220" cy="250" r="5"></circle><circle cx="220" cy="290" r="5"></circle><circle cx="230" cy="10" r="5"></circle><circle cx="230" cy="20" r="5"></circle><circle cx="230" cy="30" r="5"></circle><circle cx="230" cy="40" r="5"></circle><circle cx="230" cy="50" r="5"></circle><circle cx="230" cy="60" r="5"></circle><circle cx="230" cy="70" r="5"></circle><circle cx="230" cy="100" r="5"></circle><circle cx="230" cy="110" r="5"></circle><circle cx="230" cy="140" r="5"></circle><circle cx="230" cy="150" r="5"></circle><circle cx="230" cy="160" r="5"></circle><circle cx="230" cy="180" r="5"></circle><circle cx="230" cy="210" r="5"></circle><circle cx="230" cy="230" r="5"></circle><circle cx="230" cy="250" r="5"></circle><circle cx="230" cy="270" r="5"></circle><circle cx="240" cy="10" r="5"></circle><circle cx="240" cy="70" r="5"></circle><circle cx="240" cy="90" r="5"></circle><circle cx="240" cy="100" r="5"></circle><circle cx="240" cy="120" r="5"></circle><circle cx="240" cy="150" r="5"></circle><circle cx="240" cy="160" r="5"></circle><circle cx="240" cy="170" r="5"></circle><circle cx="240" cy="180" r="5"></circle><circle cx="240" cy="190" r="5"></circle><circle cx="240" cy="200" r="5"></circle><circle cx="240" cy="210" r="5"></circle><circle cx="240" cy="250" r="5"></circle><circle cx="240" cy="260" r="5"></circle><circle cx="240" cy="270" r="5"></circle><circle cx="240" cy="280" r="5"></circle><circle cx="240" cy="290" r="5"></circle><circle cx="250" cy="10" r="5"></circle><circle cx="250" cy="30" r="5"></circle><circle cx="250" cy="40" r="5"></circle><circle cx="250" cy="50" r="5"></circle><circle cx="250" cy="70" r="5"></circle><circle cx="250" cy="100" r="5"></circle><circle cx="250" cy="140" r="5"></circle><circle cx="250" cy="160" r="5"></circle><circle cx="250" cy="180" r="5"></circle><circle cx="250" cy="200" r="5"></circle><circle cx="250" cy="210" r="5"></circle><circle cx="250" cy="220" r="5"></circle><circle cx="250" cy="230" r="5"></circle><circle cx="250" cy="240" r="5"></circle><circle cx="250" cy="250" r="5"></circle><circle cx="250" cy="270" r="5"></circle><circle cx="250" cy="290" r="5"></circle><circle cx="260" cy="10" r="5"></circle><circle cx="260" cy="30" r="5"></circle><circle cx="260" cy="40" r="5"></circle><circle cx="260" cy="50" r="5"></circle><circle cx="260" cy="70" r="5"></circle><circle cx="260" cy="90" r="5"></circle><circle cx="260" cy="120" r="5"></circle><circle cx="260" cy="130" r="5"></circle><circle cx="260" cy="150" r="5"></circle><circle cx="260" cy="170" r="5"></circle><circle cx="260" cy="220" r="5"></circle><circle cx="260" cy="230" r="5"></circle><circle cx="260" cy="260" r="5"></circle><circle cx="260" cy="270" r="5"></circle><circle cx="260" cy="280" r="5"></circle><circle cx="260" cy="290" r="5"></circle><circle cx="270" cy="10" r="5"></circle><circle cx="270" cy="30" r="5"></circle><circle cx="270" cy="40" r="5"></circle><circle cx="270" cy="50" r="5"></circle><circle cx="270" cy="70" r="5"></circle><circle cx="270" cy="130" r="5"></circle><circle cx="270" cy="150" r="5"></circle><circle cx="270" cy="170" r="5"></circle><circle cx="270" cy="180" r="5"></circle><circle cx="270" cy="190" r="5"></circle><circle cx="270" cy="210" r="5"></circle><circle cx="270" cy="220" r="5"></circle><circle cx="270" cy="230" r="5"></circle><circle cx="270" cy="250" r="5"></circle><circle cx="270" cy="260" r="5"></circle><circle cx="270" cy="270" r="5"></circle><circle cx="270" cy="290" r="5"></circle><circle cx="280" cy="10" r="5"></circle><circle cx="280" cy="70" r="5"></circle><circle cx="280" cy="90" r="5"></circle><circle cx="280" cy="120" r="5"></circle><circle cx="280" cy="160" r="5"></circle><circle cx="280" cy="200" r="5"></circle><circle cx="280" cy="210" r="5"></circle><circle cx="280" cy="220" r="5"></circle><circle cx="280" cy="250" r="5"></circle><circle cx="280" cy="260" r="5"></circle><circle cx="280" cy="270" r="5"></circle><circle cx="280" cy="280" r="5"></circle><circle cx="290" cy="10" r="5"></circle><circle cx="290" cy="20" r="5"></circle><circle cx="290" cy="30" r="5"></circle><circle cx="290" cy="40" r="5"></circle><circle cx="290" cy="50" r="5"></circle><circle cx="290" cy="60" r="5"></circle><circle cx="290" cy="70" r="5"></circle><circle cx="290" cy="100" r="5"></circle><circle cx="290" cy="140" r="5"></circle><circle cx="290" cy="180" r="5"></circle><circle cx="290" cy="210" r="5"></circle><circle cx="290" cy="220" r="5"></circle><circle cx="290" cy="240" r="5"></circle><circle cx="290" cy="250" r="5"></circle><circle cx="290" cy="260" r="5"></circle></clippath></defs><rect x="5" y="5" height="290" width="290" clip-path="url(#clip-path-dot-color)" fill="#000"></rect></svg>
