<svg width="300" height="300"><defs><clippath id="clip-path-dot-color"><path d="M 5 5v 10h 10v -5a 5 5, 0, 0, 0, -5 -5" transform="rotate(-90,10,10)"></path><rect x="5" y="15" width="10" height="10"></rect><rect x="5" y="25" width="10" height="10"></rect><rect x="5" y="35" width="10" height="10"></rect><rect x="5" y="45" width="10" height="10"></rect><rect x="5" y="55" width="10" height="10"></rect><path d="M 5 65v 10h 10v -5a 5 5, 0, 0, 0, -5 -5" transform="rotate(180,10,70)"></path><path d="M 5 85v 10h 10v -5a 5 5, 0, 0, 0, -5 -5" transform="rotate(-90,10,90)"></path><rect x="5" y="95" width="10" height="10"></rect><rect x="5" y="105" width="10" height="10"></rect><rect x="5" y="115" width="10" height="10"></rect><rect x="5" y="125" width="10" height="10"></rect><rect x="5" y="135" width="10" height="10"></rect><rect x="5" y="145" width="10" height="10"></rect><rect x="5" y="155" width="10" height="10"></rect><rect x="5" y="165" width="10" height="10"></rect><rect x="5" y="175" width="10" height="10"></rect><rect x="5" y="185" width="10" height="10"></rect><rect x="5" y="195" width="10" height="10"></rect><path d="M 5 205v 10h 5a 5 5, 0, 0, 0, 0 -10" transform="rotate(90,10,210)"></path><path d="M 5 225v 10h 10v -5a 5 5, 0, 0, 0, -5 -5" transform="rotate(-90,10,230)"></path><rect x="5" y="235" width="10" height="10"></rect><rect x="5" y="245" width="10" height="10"></rect><rect x="5" y="255" width="10" height="10"></rect><rect x="5" y="265" width="10" height="10"></rect><rect x="5" y="275" width="10" height="10"></rect><path d="M 5 285v 10h 10v -5a 5 5, 0, 0, 0, -5 -5" transform="rotate(180,10,290)"></path><rect x="15" y="5" width="10" height="10"></rect><rect x="15" y="65" width="10" height="10"></rect><rect x="15" y="85" width="10" height="10"></rect><rect x="15" y="95" width="10" height="10"></rect><rect x="15" y="105" width="10" height="10"></rect><path d="M 15 125v 10h 5a 5 5, 0, 0, 0, 0 -10" transform="rotate(0,20,130)"></path><path d="M 15 145v 10h 10v -5a 5 5, 0, 0, 0, -5 -5" transform="rotate(0,20,150)"></path><rect x="15" y="155" width="10" height="10"></rect><path d="M 15 165v 10h 10v -5a 5 5, 0, 0, 0, -5 -5" transform="rotate(90,20,170)"></path><rect x="15" y="225" width="10" height="10"></rect><rect x="15" y="285" width="10" height="10"></rect><rect x="25" y="5" width="10" height="10"></rect><path d="M 25 25v 10h 10v -5a 5 5, 0, 0, 0, -5 -5" transform="rotate(-90,30,30)"></path><rect x="25" y="35" width="10" height="10"></rect><path d="M 25 45v 10h 10v -5a 5 5, 0, 0, 0, -5 -5" transform="rotate(180,30,50)"></path><rect x="25" y="65" width="10" height="10"></rect><rect x="25" y="85" width="10" height="10"></rect><rect x="25" y="95" width="10" height="10"></rect><rect x="25" y="105" width="10" height="10"></rect><path d="M 25 115v 10h 5a 5 5, 0, 0, 0, 0 -10" transform="rotate(90,30,120)"></path><path d="M 25 135v 10h 5a 5 5, 0, 0, 0, 0 -10" transform="rotate(180,30,140)"></path><rect x="25" y="155" width="10" height="10"></rect><path d="M 25 175v 10h 10v -5a 5 5, 0, 0, 0, -5 -5" transform="rotate(-90,30,180)"></path><path d="M 25 185v 10h 5a 5 5, 0, 0, 0, 0 -10" transform="rotate(90,30,190)"></path><rect x="25" y="225" width="10" height="10"></rect><path d="M 25 245v 10h 10v -5a 5 5, 0, 0, 0, -5 -5" transform="rotate(-90,30,250)"></path><rect x="25" y="255" width="10" height="10"></rect><path d="M 25 265v 10h 10v -5a 5 5, 0, 0, 0, -5 -5" transform="rotate(180,30,270)"></path><rect x="25" y="285" width="10" height="10"></rect><rect x="35" y="5" width="10" height="10"></rect><rect x="35" y="25" width="10" height="10"></rect><rect x="35" y="35" width="10" height="10"></rect><rect x="35" y="45" width="10" height="10"></rect><rect x="35" y="65" width="10" height="10"></rect><rect x="35" y="85" width="10" height="10"></rect><path d="M 35 95v 10h 10v -5a 5 5, 0, 0, 0, -5 -5" transform="rotate(90,40,100)"></path><rect x="35" y="135" width="10" height="10"></rect><rect x="35" y="145" width="10" height="10"></rect><rect x="35" y="155" width="10" height="10"></rect><rect x="35" y="165" width="10" height="10"></rect><path d="M 35 175v 10h 10v -5a 5 5, 0, 0, 0, -5 -5" transform="rotate(90,40,180)"></path><path d="M 35 195v 10h 10v -5a 5 5, 0, 0, 0, -5 -5" transform="rotate(-90,40,200)"></path><path d="M 35 205v 10h 5a 5 5, 0, 0, 0, 0 -10" transform="rotate(90,40,210)"></path><rect x="35" y="225" width="10" height="10"></rect><rect x="35" y="245" width="10" height="10"></rect><rect x="35" y="255" width="10" height="10"></rect><rect x="35" y="265" width="10" height="10"></rect><rect x="35" y="285" width="10" height="10"></rect><rect x="45" y="5" width="10" height="10"></rect><path d="M 45 25v 10h 10v -5a 5 5, 0, 0, 0, -5 -5" transform="rotate(0,50,30)"></path><rect x="45" y="35" width="10" height="10"></rect><path d="M 45 45v 10h 10v -5a 5 5, 0, 0, 0, -5 -5" transform="rotate(90,50,50)"></path><rect x="45" y="65" width="10" height="10"></rect><path d="M 45 85v 10h 5a 5 5, 0, 0, 0, 0 -10" transform="rotate(0,50,90)"></path><path d="M 45 125v 10h 10v -5a 5 5, 0, 0, 0, -5 -5" transform="rotate(-90,50,130)"></path><path d="M 45 135v 10h 10v -5a 5 5, 0, 0, 0, -5 -5" transform="rotate(90,50,140)"></path><rect x="45" y="155" width="10" height="10"></rect><rect x="45" y="165" width="10" height="10"></rect><rect x="45" y="195" width="10" height="10"></rect><rect x="45" y="225" width="10" height="10"></rect><path d="M 45 245v 10h 10v -5a 5 5, 0, 0, 0, -5 -5" transform="rotate(0,50,250)"></path><rect x="45" y="255" width="10" height="10"></rect><path d="M 45 265v 10h 10v -5a 5 5, 0, 0, 0, -5 -5" transform="rotate(90,50,270)"></path><rect x="45" y="285" width="10" height="10"></rect><rect x="55" y="5" width="10" height="10"></rect><rect x="55" y="65" width="10" height="10"></rect><circle cx="60" cy="100" r="5"></circle><rect x="55" y="125" width="10" height="10"></rect><path d="M 55 155v 10h 10v -5a 5 5, 0, 0, 0, -5 -5" transform="rotate(0,60,160)"></path><rect x="55" y="165" width="10" height="10"></rect><path d="M 55 195v 10h 10v -5a 5 5, 0, 0, 0, -5 -5" transform="rotate(0,60,200)"></path><path d="M 55 205v 10h 10v -5a 5 5, 0, 0, 0, -5 -5" transform="rotate(180,60,210)"></path><rect x="55" y="225" width="10" height="10"></rect><rect x="55" y="285" width="10" height="10"></rect><path d="M 65 5v 10h 10v -5a 5 5, 0, 0, 0, -5 -5" transform="rotate(0,70,10)"></path><rect x="65" y="15" width="10" height="10"></rect><rect x="65" y="25" width="10" height="10"></rect><rect x="65" y="35" width="10" height="10"></rect><rect x="65" y="45" width="10" height="10"></rect><rect x="65" y="55" width="10" height="10"></rect><path d="M 65 65v 10h 10v -5a 5 5, 0, 0, 0, -5 -5" transform="rotate(90,70,70)"></path><path d="M 65 85v 10h 5a 5 5, 0, 0, 0, 0 -10" transform="rotate(180,70,90)"></path><circle cx="70" cy="110" r="5"></circle><path d="M 65 125v 10h 5a 5 5, 0, 0, 0, 0 -10" transform="rotate(0,70,130)"></path><circle cx="70" cy="150" r="5"></circle><path d="M 65 165v 10h 5a 5 5, 0, 0, 0, 0 -10" transform="rotate(0,70,170)"></path><path d="M 65 185v 10h 5a 5 5, 0, 0, 0, 0 -10" transform="rotate(180,70,190)"></path><rect x="65" y="205" width="10" height="10"></rect><path d="M 65 225v 10h 10v -5a 5 5, 0, 0, 0, -5 -5" transform="rotate(0,70,230)"></path><rect x="65" y="235" width="10" height="10"></rect><rect x="65" y="245" width="10" height="10"></rect><rect x="65" y="255" width="10" height="10"></rect><rect x="65" y="265" width="10" height="10"></rect><rect x="65" y="275" width="10" height="10"></rect><path d="M 65 285v 10h 10v -5a 5 5, 0, 0, 0, -5 -5" transform="rotate(90,70,290)"></path><rect x="75" y="85" width="10" height="10"></rect><path d="M 75 155v 10h 5a 5 5, 0, 0, 0, 0 -10" transform="rotate(180,80,160)"></path><path d="M 75 185v 10h 10v -5a 5 5, 0, 0, 0, -5 -5" transform="rotate(0,80,190)"></path><rect x="75" y="195" width="10" height="10"></rect><path d="M 75 205v 10h 10v -5a 5 5, 0, 0, 0, -5 -5" transform="rotate(90,80,210)"></path><path d="M 85 15v 10h 5a 5 5, 0, 0, 0, 0 -10" transform="rotate(180,90,20)"></path><path d="M 85 35v 10h 5a 5 5, 0, 0, 0, 0 -10" transform="rotate(180,90,40)"></path><path d="M 85 55v 10h 5a 5 5, 0, 0, 0, 0 -10" transform="rotate(-90,90,60)"></path><path d="M 85 65v 10h 5a 5 5, 0, 0, 0, 0 -10" transform="rotate(90,90,70)"></path><rect x="85" y="85" width="10" height="10"></rect><path d="M 85 105v 10h 10v -5a 5 5, 0, 0, 0, -5 -5" transform="rotate(-90,90,110)"></path><path d="M 85 115v 10h 10v -5a 5 5, 0, 0, 0, -5 -5" transform="rotate(180,90,120)"></path><circle cx="90" cy="140" r="5"></circle><path d="M 85 155v 10h 5a 5 5, 0, 0, 0, 0 -10" transform="rotate(0,90,160)"></path><path d="M 85 215v 10h 10v -5a 5 5, 0, 0, 0, -5 -5" transform="rotate(-90,90,220)"></path><path d="M 85 225v 10h 10v -5a 5 5, 0, 0, 0, -5 -5" transform="rotate(180,90,230)"></path><path d="M 85 245v 10h 5a 5 5, 0, 0, 0, 0 -10" transform="rotate(-90,90,250)"></path><rect x="85" y="255" width="10" height="10"></rect><rect x="85" y="265" width="10" height="10"></rect><rect x="85" y="275" width="10" height="10"></rect><path d="M 85 285v 10h 10v -5a 5 5, 0, 0, 0, -5 -5" transform="rotate(180,90,290)"></path><path d="M 95 5v 10h 5a 5 5, 0, 0, 0, 0 -10" transform="rotate(-90,100,10)"></path><rect x="95" y="15" width="10" height="10"></rect><rect x="95" y="25" width="10" height="10"></rect><path d="M 95 35v 10h 10v -5a 5 5, 0, 0, 0, -5 -5" transform="rotate(90,100,40)"></path><rect x="95" y="85" width="10" height="10"></rect><rect x="95" y="95" width="10" height="10"></rect><rect x="95" y="105" width="10" height="10"></rect><rect x="95" y="115" width="10" height="10"></rect><path d="M 95 125v 10h 5a 5 5, 0, 0, 0, 0 -10" transform="rotate(90,100,130)"></path><path d="M 95 145v 10h 5a 5 5, 0, 0, 0, 0 -10" transform="rotate(180,100,150)"></path><circle cx="100" cy="190" r="5"></circle><path d="M 95 205v 10h 5a 5 5, 0, 0, 0, 0 -10" transform="rotate(-90,100,210)"></path><rect x="95" y="215" width="10" height="10"></rect><path d="M 95 225v 10h 10v -5a 5 5, 0, 0, 0, -5 -5" transform="rotate(90,100,230)"></path><rect x="95" y="285" width="10" height="10"></rect><rect x="105" y="25" width="10" height="10"></rect><path d="M 105 45v 10h 5a 5 5, 0, 0, 0, 0 -10" transform="rotate(-90,110,50)"></path><rect x="105" y="55" width="10" height="10"></rect><path d="M 105 65v 10h 5a 5 5, 0, 0, 0, 0 -10" transform="rotate(90,110,70)"></path><path d="M 105 85v 10h 5a 5 5, 0, 0, 0, 0 -10" transform="rotate(0,110,90)"></path><rect x="105" y="115" width="10" height="10"></rect><path d="M 105 135v 10h 5a 5 5, 0, 0, 0, 0 -10" transform="rotate(-90,110,140)"></path><rect x="105" y="145" width="10" height="10"></rect><path d="M 105 155v 10h 5a 5 5, 0, 0, 0, 0 -10" transform="rotate(90,110,160)"></path><circle cx="110" cy="180" r="5"></circle><path d="M 105 195v 10h 5a 5 5, 0, 0, 0, 0 -10" transform="rotate(180,110,200)"></path><path d="M 105 215v 10h 5a 5 5, 0, 0, 0, 0 -10" transform="rotate(0,110,220)"></path><path d="M 105 235v 10h 5a 5 5, 0, 0, 0, 0 -10" transform="rotate(-90,110,240)"></path><path d="M 105 245v 10h 5a 5 5, 0, 0, 0, 0 -10" transform="rotate(90,110,250)"></path><path d="M 105 265v 10h 10v -5a 5 5, 0, 0, 0, -5 -5" transform="rotate(-90,110,270)"></path><rect x="105" y="275" width="10" height="10"></rect><rect x="105" y="285" width="10" height="10"></rect><path d="M 115 15v 10h 10v -5a 5 5, 0, 0, 0, -5 -5" transform="rotate(-90,120,20)"></path><rect x="115" y="25" width="10" height="10"></rect><path d="M 115 35v 10h 5a 5 5, 0, 0, 0, 0 -10" transform="rotate(90,120,40)"></path><path d="M 115 105v 10h 10v -5a 5 5, 0, 0, 0, -5 -5" transform="rotate(-90,120,110)"></path><rect x="115" y="115" width="10" height="10"></rect><path d="M 115 125v 10h 5a 5 5, 0, 0, 0, 0 -10" transform="rotate(90,120,130)"></path><path d="M 115 185v 10h 10v -5a 5 5, 0, 0, 0, -5 -5" transform="rotate(-90,120,190)"></path><rect x="115" y="195" width="10" height="10"></rect><path d="M 115 205v 10h 5a 5 5, 0, 0, 0, 0 -10" transform="rotate(90,120,210)"></path><rect x="115" y="265" width="10" height="10"></rect><rect x="115" y="275" width="10" height="10"></rect><rect x="115" y="285" width="10" height="10"></rect><path d="M 125 15v 10h 5a 5 5, 0, 0, 0, 0 -10" transform="rotate(0,130,20)"></path><circle cx="130" cy="50" r="5"></circle><path d="M 125 65v 10h 5a 5 5, 0, 0, 0, 0 -10" transform="rotate(-90,130,70)"></path><rect x="125" y="75" width="10" height="10"></rect><path d="M 125 85v 10h 5a 5 5, 0, 0, 0, 0 -10" transform="rotate(90,130,90)"></path><path d="M 125 105v 10h 5a 5 5, 0, 0, 0, 0 -10" transform="rotate(0,130,110)"></path><path d="M 125 135v 10h 5a 5 5, 0, 0, 0, 0 -10" transform="rotate(180,130,140)"></path><path d="M 125 155v 10h 5a 5 5, 0, 0, 0, 0 -10" transform="rotate(-90,130,160)"></path><path d="M 125 165v 10h 10v -5a 5 5, 0, 0, 0, -5 -5" transform="rotate(180,130,170)"></path><path d="M 125 185v 10h 5a 5 5, 0, 0, 0, 0 -10" transform="rotate(0,130,190)"></path><circle cx="130" cy="220" r="5"></circle><path d="M 125 235v 10h 5a 5 5, 0, 0, 0, 0 -10" transform="rotate(-90,130,240)"></path><path d="M 125 245v 10h 5a 5 5, 0, 0, 0, 0 -10" transform="rotate(90,130,250)"></path><path d="M 125 265v 10h 5a 5 5, 0, 0, 0, 0 -10" transform="rotate(0,130,270)"></path><path d="M 125 285v 10h 5a 5 5, 0, 0, 0, 0 -10" transform="rotate(0,130,290)"></path><path d="M 135 5v 10h 5a 5 5, 0, 0, 0, 0 -10" transform="rotate(180,140,10)"></path><path d="M 135 55v 10h 5a 5 5, 0, 0, 0, 0 -10" transform="rotate(180,140,60)"></path><path d="M 135 125v 10h 5a 5 5, 0, 0, 0, 0 -10" transform="rotate(-90,140,130)"></path><rect x="135" y="135" width="10" height="10"></rect><rect x="135" y="165" width="10" height="10"></rect><path d="M 135 175v 10h 5a 5 5, 0, 0, 0, 0 -10" transform="rotate(90,140,180)"></path><path d="M 135 225v 10h 5a 5 5, 0, 0, 0, 0 -10" transform="rotate(180,140,230)"></path><circle cx="140" cy="260" r="5"></circle><path d="M 145 5v 10h 5a 5 5, 0, 0, 0, 0 -10" transform="rotate(0,150,10)"></path><path d="M 145 25v 10h 5a 5 5, 0, 0, 0, 0 -10" transform="rotate(-90,150,30)"></path><path d="M 145 35v 10h 10v -5a 5 5, 0, 0, 0, -5 -5" transform="rotate(180,150,40)"></path><rect x="145" y="55" width="10" height="10"></rect><rect x="145" y="65" width="10" height="10"></rect><rect x="145" y="75" width="10" height="10"></rect><rect x="145" y="85" width="10" height="10"></rect><path d="M 145 95v 10h 10v -5a 5 5, 0, 0, 0, -5 -5" transform="rotate(180,150,100)"></path><path d="M 145 135v 10h 5a 5 5, 0, 0, 0, 0 -10" transform="rotate(0,150,140)"></path><path d="M 145 155v 10h 5a 5 5, 0, 0, 0, 0 -10" transform="rotate(-90,150,160)"></path><rect x="145" y="165" width="10" height="10"></rect><path d="M 145 185v 10h 5a 5 5, 0, 0, 0, 0 -10" transform="rotate(180,150,190)"></path><path d="M 145 205v 10h 5a 5 5, 0, 0, 0, 0 -10" transform="rotate(-90,150,210)"></path><rect x="145" y="215" width="10" height="10"></rect><rect x="145" y="225" width="10" height="10"></rect><path d="M 145 245v 10h 5a 5 5, 0, 0, 0, 0 -10" transform="rotate(180,150,250)"></path><circle cx="150" cy="280" r="5"></circle><circle cx="160" cy="20" r="5"></circle><path d="M 155 35v 10h 5a 5 5, 0, 0, 0, 0 -10" transform="rotate(0,160,40)"></path><path d="M 155 55v 10h 5a 5 5, 0, 0, 0, 0 -10" transform="rotate(0,160,60)"></path><rect x="155" y="75" width="10" height="10"></rect><rect x="155" y="85" width="10" height="10"></rect><rect x="155" y="95" width="10" height="10"></rect><path d="M 155 105v 10h 10v -5a 5 5, 0, 0, 0, -5 -5" transform="rotate(180,160,110)"></path><path d="M 155 145v 10h 5a 5 5, 0, 0, 0, 0 -10" transform="rotate(180,160,150)"></path><path d="M 155 165v 10h 5a 5 5, 0, 0, 0, 0 -10" transform="rotate(0,160,170)"></path><rect x="155" y="185" width="10" height="10"></rect><path d="M 155 195v 10h 10v -5a 5 5, 0, 0, 0, -5 -5" transform="rotate(180,160,200)"></path><path d="M 155 225v 10h 5a 5 5, 0, 0, 0, 0 -10" transform="rotate(0,160,230)"></path><rect x="155" y="245" width="10" height="10"></rect><path d="M 155 265v 10h 5a 5 5, 0, 0, 0, 0 -10" transform="rotate(180,160,270)"></path><path d="M 165 45v 10h 5a 5 5, 0, 0, 0, 0 -10" transform="rotate(180,170,50)"></path><path d="M 165 65v 10h 5a 5 5, 0, 0, 0, 0 -10" transform="rotate(-90,170,70)"></path><rect x="165" y="75" width="10" height="10"></rect><rect x="165" y="85" width="10" height="10"></rect><rect x="165" y="95" width="10" height="10"></rect><rect x="165" y="105" width="10" height="10"></rect><path d="M 165 135v 10h 5a 5 5, 0, 0, 0, 0 -10" transform="rotate(-90,170,140)"></path><rect x="165" y="145" width="10" height="10"></rect><path d="M 165 155v 10h 5a 5 5, 0, 0, 0, 0 -10" transform="rotate(90,170,160)"></path><path d="M 165 175v 10h 5a 5 5, 0, 0, 0, 0 -10" transform="rotate(-90,170,180)"></path><rect x="165" y="185" width="10" height="10"></rect><rect x="165" y="195" width="10" height="10"></rect><path d="M 165 205v 10h 10v -5a 5 5, 0, 0, 0, -5 -5" transform="rotate(180,170,210)"></path><path d="M 165 235v 10h 5a 5 5, 0, 0, 0, 0 -10" transform="rotate(-90,170,240)"></path><rect x="165" y="245" width="10" height="10"></rect><rect x="165" y="255" width="10" height="10"></rect><rect x="165" y="265" width="10" height="10"></rect><rect x="165" y="275" width="10" height="10"></rect><path d="M 165 285v 10h 10v -5a 5 5, 0, 0, 0, -5 -5" transform="rotate(180,170,290)"></path><path d="M 175 5v 10h 5a 5 5, 0, 0, 0, 0 -10" transform="rotate(180,180,10)"></path><path d="M 175 35v 10h 10v -5a 5 5, 0, 0, 0, -5 -5" transform="rotate(-90,180,40)"></path><rect x="175" y="45" width="10" height="10"></rect><path d="M 175 55v 10h 5a 5 5, 0, 0, 0, 0 -10" transform="rotate(90,180,60)"></path><path d="M 175 85v 10h 5a 5 5, 0, 0, 0, 0 -10" transform="rotate(0,180,90)"></path><path d="M 175 105v 10h 5a 5 5, 0, 0, 0, 0 -10" transform="rotate(0,180,110)"></path><circle cx="180" cy="130" r="5"></circle><circle cx="180" cy="170" r="5"></circle><path d="M 175 205v 10h 5a 5 5, 0, 0, 0, 0 -10" transform="rotate(0,180,210)"></path><path d="M 175 225v 10h 5a 5 5, 0, 0, 0, 0 -10" transform="rotate(180,180,230)"></path><path d="M 175 245v 10h 10v -5a 5 5, 0, 0, 0, -5 -5" transform="rotate(0,180,250)"></path><rect x="175" y="255" width="10" height="10"></rect><rect x="175" y="285" width="10" height="10"></rect><rect x="185" y="5" width="10" height="10"></rect><rect x="185" y="35" width="10" height="10"></rect><rect x="185" y="45" width="10" height="10"></rect><circle cx="190" cy="70" r="5"></circle><path d="M 185 135v 10h 10v -5a 5 5, 0, 0, 0, -5 -5" transform="rotate(-90,190,140)"></path><path d="M 185 145v 10h 5a 5 5, 0, 0, 0, 0 -10" transform="rotate(90,190,150)"></path><path d="M 185 195v 10h 5a 5 5, 0, 0, 0, 0 -10" transform="rotate(180,190,200)"></path><path d="M 185 215v 10h 5a 5 5, 0, 0, 0, 0 -10" transform="rotate(-90,190,220)"></path><rect x="185" y="225" width="10" height="10"></rect><rect x="185" y="255" width="10" height="10"></rect><rect x="185" y="265" width="10" height="10"></rect><rect x="185" y="275" width="10" height="10"></rect><rect x="185" y="285" width="10" height="10"></rect><rect x="195" y="5" width="10" height="10"></rect><path d="M 195 25v 10h 10v -5a 5 5, 0, 0, 0, -5 -5" transform="rotate(-90,200,30)"></path><rect x="195" y="35" width="10" height="10"></rect><rect x="195" y="45" width="10" height="10"></rect><circle cx="200" cy="80" r="5"></circle><path d="M 195 95v 10h 5a 5 5, 0, 0, 0, 0 -10" transform="rotate(180,200,100)"></path><path d="M 195 115v 10h 10v -5a 5 5, 0, 0, 0, -5 -5" transform="rotate(-90,200,120)"></path><rect x="195" y="125" width="10" height="10"></rect><path d="M 195 135v 10h 10v -5a 5 5, 0, 0, 0, -5 -5" transform="rotate(90,200,140)"></path><path d="M 195 175v 10h 5a 5 5, 0, 0, 0, 0 -10" transform="rotate(180,200,180)"></path><path d="M 195 195v 10h 5a 5 5, 0, 0, 0, 0 -10" transform="rotate(0,200,200)"></path><rect x="195" y="225" width="10" height="10"></rect><path d="M 195 235v 10h 10v -5a 5 5, 0, 0, 0, -5 -5" transform="rotate(180,200,240)"></path><path d="M 195 255v 10h 10v -5a 5 5, 0, 0, 0, -5 -5" transform="rotate(0,200,260)"></path><rect x="195" y="265" width="10" height="10"></rect><rect x="195" y="275" width="10" height="10"></rect><path d="M 195 285v 10h 10v -5a 5 5, 0, 0, 0, -5 -5" transform="rotate(90,200,290)"></path><path d="M 205 5v 10h 10v -5a 5 5, 0, 0, 0, -5 -5" transform="rotate(0,210,10)"></path><rect x="205" y="15" width="10" height="10"></rect><path d="M 205 25v 10h 10v -5a 5 5, 0, 0, 0, -5 -5" transform="rotate(90,210,30)"></path><path d="M 205 45v 10h 10v -5a 5 5, 0, 0, 0, -5 -5" transform="rotate(0,210,50)"></path><rect x="205" y="55" width="10" height="10"></rect><path d="M 205 65v 10h 5a 5 5, 0, 0, 0, 0 -10" transform="rotate(90,210,70)"></path><path d="M 205 95v 10h 5a 5 5, 0, 0, 0, 0 -10" transform="rotate(0,210,100)"></path><path d="M 205 115v 10h 5a 5 5, 0, 0, 0, 0 -10" transform="rotate(0,210,120)"></path><path d="M 205 145v 10h 5a 5 5, 0, 0, 0, 0 -10" transform="rotate(-90,210,150)"></path><path d="M 205 155v 10h 5a 5 5, 0, 0, 0, 0 -10" transform="rotate(90,210,160)"></path><path d="M 205 175v 10h 5a 5 5, 0, 0, 0, 0 -10" transform="rotate(0,210,180)"></path><path d="M 205 205v 10h 10v -5a 5 5, 0, 0, 0, -5 -5" transform="rotate(-90,210,210)"></path><rect x="205" y="215" width="10" height="10"></rect><rect x="205" y="225" width="10" height="10"></rect><rect x="205" y="235" width="10" height="10"></rect><path d="M 205 245v 10h 10v -5a 5 5, 0, 0, 0, -5 -5" transform="rotate(180,210,250)"></path><path d="M 205 275v 10h 5a 5 5, 0, 0, 0, 0 -10" transform="rotate(0,210,280)"></path><circle cx="220" cy="90" r="5"></circle><path d="M 215 105v 10h 5a 5 5, 0, 0, 0, 0 -10" transform="rotate(180,220,110)"></path><path d="M 215 135v 10h 5a 5 5, 0, 0, 0, 0 -10" transform="rotate(180,220,140)"></path><rect x="215" y="205" width="10" height="10"></rect><rect x="215" y="245" width="10" height="10"></rect><circle cx="220" cy="290" r="5"></circle><path d="M 225 5v 10h 10v -5a 5 5, 0, 0, 0, -5 -5" transform="rotate(-90,230,10)"></path><rect x="225" y="15" width="10" height="10"></rect><rect x="225" y="25" width="10" height="10"></rect><rect x="225" y="35" width="10" height="10"></rect><rect x="225" y="45" width="10" height="10"></rect><rect x="225" y="55" width="10" height="10"></rect><path d="M 225 65v 10h 10v -5a 5 5, 0, 0, 0, -5 -5" transform="rotate(180,230,70)"></path><path d="M 225 95v 10h 10v -5a 5 5, 0, 0, 0, -5 -5" transform="rotate(-90,230,100)"></path><path d="M 225 105v 10h 10v -5a 5 5, 0, 0, 0, -5 -5" transform="rotate(90,230,110)"></path><path d="M 225 135v 10h 10v -5a 5 5, 0, 0, 0, -5 -5" transform="rotate(0,230,140)"></path><rect x="225" y="145" width="10" height="10"></rect><path d="M 225 155v 10h 10v -5a 5 5, 0, 0, 0, -5 -5" transform="rotate(180,230,160)"></path><path d="M 225 175v 10h 5a 5 5, 0, 0, 0, 0 -10" transform="rotate(180,230,180)"></path><rect x="225" y="205" width="10" height="10"></rect><circle cx="230" cy="230" r="5"></circle><rect x="225" y="245" width="10" height="10"></rect><path d="M 225 265v 10h 5a 5 5, 0, 0, 0, 0 -10" transform="rotate(180,230,270)"></path><rect x="235" y="5" width="10" height="10"></rect><rect x="235" y="65" width="10" height="10"></rect><path d="M 235 85v 10h 5a 5 5, 0, 0, 0, 0 -10" transform="rotate(-90,240,90)"></path><rect x="235" y="95" width="10" height="10"></rect><circle cx="240" cy="120" r="5"></circle><path d="M 235 145v 10h 10v -5a 5 5, 0, 0, 0, -5 -5" transform="rotate(0,240,150)"></path><rect x="235" y="155" width="10" height="10"></rect><rect x="235" y="165" width="10" height="10"></rect><rect x="235" y="175" width="10" height="10"></rect><rect x="235" y="185" width="10" height="10"></rect><rect x="235" y="195" width="10" height="10"></rect><rect x="235" y="205" width="10" height="10"></rect><rect x="235" y="245" width="10" height="10"></rect><rect x="235" y="255" width="10" height="10"></rect><rect x="235" y="265" width="10" height="10"></rect><rect x="235" y="275" width="10" height="10"></rect><path d="M 235 285v 10h 10v -5a 5 5, 0, 0, 0, -5 -5" transform="rotate(180,240,290)"></path><rect x="245" y="5" width="10" height="10"></rect><path d="M 245 25v 10h 10v -5a 5 5, 0, 0, 0, -5 -5" transform="rotate(-90,250,30)"></path><rect x="245" y="35" width="10" height="10"></rect><path d="M 245 45v 10h 10v -5a 5 5, 0, 0, 0, -5 -5" transform="rotate(180,250,50)"></path><rect x="245" y="65" width="10" height="10"></rect><path d="M 245 95v 10h 5a 5 5, 0, 0, 0, 0 -10" transform="rotate(0,250,100)"></path><circle cx="250" cy="140" r="5"></circle><path d="M 245 155v 10h 5a 5 5, 0, 0, 0, 0 -10" transform="rotate(0,250,160)"></path><path d="M 245 175v 10h 5a 5 5, 0, 0, 0, 0 -10" transform="rotate(0,250,180)"></path><path d="M 245 195v 10h 10v -5a 5 5, 0, 0, 0, -5 -5" transform="rotate(0,250,200)"></path><rect x="245" y="205" width="10" height="10"></rect><rect x="245" y="215" width="10" height="10"></rect><rect x="245" y="225" width="10" height="10"></rect><rect x="245" y="235" width="10" height="10"></rect><path d="M 245 245v 10h 10v -5a 5 5, 0, 0, 0, -5 -5" transform="rotate(90,250,250)"></path><rect x="245" y="265" width="10" height="10"></rect><rect x="245" y="285" width="10" height="10"></rect><rect x="255" y="5" width="10" height="10"></rect><rect x="255" y="25" width="10" height="10"></rect><rect x="255" y="35" width="10" height="10"></rect><rect x="255" y="45" width="10" height="10"></rect><rect x="255" y="65" width="10" height="10"></rect><circle cx="260" cy="90" r="5"></circle><path d="M 255 115v 10h 5a 5 5, 0, 0, 0, 0 -10" transform="rotate(-90,260,120)"></path><path d="M 255 125v 10h 10v -5a 5 5, 0, 0, 0, -5 -5" transform="rotate(180,260,130)"></path><path d="M 255 145v 10h 5a 5 5, 0, 0, 0, 0 -10" transform="rotate(180,260,150)"></path><path d="M 255 165v 10h 5a 5 5, 0, 0, 0, 0 -10" transform="rotate(180,260,170)"></path><rect x="255" y="215" width="10" height="10"></rect><rect x="255" y="225" width="10" height="10"></rect><path d="M 255 255v 10h 10v -5a 5 5, 0, 0, 0, -5 -5" transform="rotate(-90,260,260)"></path><rect x="255" y="265" width="10" height="10"></rect><rect x="255" y="275" width="10" height="10"></rect><rect x="255" y="285" width="10" height="10"></rect><rect x="265" y="5" width="10" height="10"></rect><path d="M 265 25v 10h 10v -5a 5 5, 0, 0, 0, -5 -5" transform="rotate(0,270,30)"></path><rect x="265" y="35" width="10" height="10"></rect><path d="M 265 45v 10h 10v -5a 5 5, 0, 0, 0, -5 -5" transform="rotate(90,270,50)"></path><rect x="265" y="65" width="10" height="10"></rect><path d="M 265 125v 10h 5a 5 5, 0, 0, 0, 0 -10" transform="rotate(0,270,130)"></path><path d="M 265 145v 10h 5a 5 5, 0, 0, 0, 0 -10" transform="rotate(0,270,150)"></path><path d="M 265 165v 10h 10v -5a 5 5, 0, 0, 0, -5 -5" transform="rotate(0,270,170)"></path><rect x="265" y="175" width="10" height="10"></rect><path d="M 265 185v 10h 5a 5 5, 0, 0, 0, 0 -10" transform="rotate(90,270,190)"></path><path d="M 265 205v 10h 10v -5a 5 5, 0, 0, 0, -5 -5" transform="rotate(-90,270,210)"></path><rect x="265" y="215" width="10" height="10"></rect><path d="M 265 225v 10h 10v -5a 5 5, 0, 0, 0, -5 -5" transform="rotate(90,270,230)"></path><path d="M 265 245v 10h 10v -5a 5 5, 0, 0, 0, -5 -5" transform="rotate(-90,270,250)"></path><rect x="265" y="255" width="10" height="10"></rect><rect x="265" y="265" width="10" height="10"></rect><path d="M 265 285v 10h 5a 5 5, 0, 0, 0, 0 -10" transform="rotate(0,270,290)"></path><rect x="275" y="5" width="10" height="10"></rect><rect x="275" y="65" width="10" height="10"></rect><circle cx="280" cy="90" r="5"></circle><circle cx="280" cy="120" r="5"></circle><circle cx="280" cy="160" r="5"></circle><path d="M 275 195v 10h 5a 5 5, 0, 0, 0, 0 -10" transform="rotate(-90,280,200)"></path><rect x="275" y="205" width="10" height="10"></rect><rect x="275" y="215" width="10" height="10"></rect><rect x="275" y="245" width="10" height="10"></rect><rect x="275" y="255" width="10" height="10"></rect><rect x="275" y="265" width="10" height="10"></rect><path d="M 275 275v 10h 5a 5 5, 0, 0, 0, 0 -10" transform="rotate(90,280,280)"></path><path d="M 285 5v 10h 10v -5a 5 5, 0, 0, 0, -5 -5" transform="rotate(0,290,10)"></path><rect x="285" y="15" width="10" height="10"></rect><rect x="285" y="25" width="10" height="10"></rect><rect x="285" y="35" width="10" height="10"></rect><rect x="285" y="45" width="10" height="10"></rect><rect x="285" y="55" width="10" height="10"></rect><path d="M 285 65v 10h 10v -5a 5 5, 0, 0, 0, -5 -5" transform="rotate(90,290,70)"></path><circle cx="290" cy="100" r="5"></circle><circle cx="290" cy="140" r="5"></circle><circle cx="290" cy="180" r="5"></circle><path d="M 285 205v 10h 10v -5a 5 5, 0, 0, 0, -5 -5" transform="rotate(0,290,210)"></path><path d="M 285 215v 10h 10v -5a 5 5, 0, 0, 0, -5 -5" transform="rotate(90,290,220)"></path><path d="M 285 235v 10h 5a 5 5, 0, 0, 0, 0 -10" transform="rotate(-90,290,240)"></path><rect x="285" y="245" width="10" height="10"></rect><path d="M 285 255v 10h 10v -5a 5 5, 0, 0, 0, -5 -5" transform="rotate(90,290,260)"></path></clippath></defs><rect x="5" y="5" height="290" width="290" clip-path="url(#clip-path-dot-color)" color="#000"></rect></svg>
