<svg width="300" height="300"><defs><clippath id="clip-path-dot-color"><rect x="5" y="5" width="10" height="10"></rect><rect x="5" y="15" width="10" height="10"></rect><rect x="5" y="25" width="10" height="10"></rect><rect x="5" y="35" width="10" height="10"></rect><rect x="5" y="45" width="10" height="10"></rect><rect x="5" y="55" width="10" height="10"></rect><rect x="5" y="65" width="10" height="10"></rect><rect x="5" y="85" width="10" height="10"></rect><rect x="5" y="95" width="10" height="10"></rect><rect x="5" y="105" width="10" height="10"></rect><rect x="5" y="115" width="10" height="10"></rect><rect x="5" y="125" width="10" height="10"></rect><rect x="5" y="135" width="10" height="10"></rect><rect x="5" y="145" width="10" height="10"></rect><rect x="5" y="155" width="10" height="10"></rect><rect x="5" y="165" width="10" height="10"></rect><rect x="5" y="175" width="10" height="10"></rect><rect x="5" y="185" width="10" height="10"></rect><rect x="5" y="195" width="10" height="10"></rect><rect x="5" y="205" width="10" height="10"></rect><rect x="5" y="225" width="10" height="10"></rect><rect x="5" y="235" width="10" height="10"></rect><rect x="5" y="245" width="10" height="10"></rect><rect x="5" y="255" width="10" height="10"></rect><rect x="5" y="265" width="10" height="10"></rect><rect x="5" y="275" width="10" height="10"></rect><rect x="5" y="285" width="10" height="10"></rect><rect x="15" y="5" width="10" height="10"></rect><rect x="15" y="65" width="10" height="10"></rect><rect x="15" y="85" width="10" height="10"></rect><rect x="15" y="95" width="10" height="10"></rect><rect x="15" y="105" width="10" height="10"></rect><rect x="15" y="125" width="10" height="10"></rect><rect x="15" y="145" width="10" height="10"></rect><rect x="15" y="155" width="10" height="10"></rect><rect x="15" y="165" width="10" height="10"></rect><rect x="15" y="225" width="10" height="10"></rect><rect x="15" y="285" width="10" height="10"></rect><rect x="25" y="5" width="10" height="10"></rect><rect x="25" y="25" width="10" height="10"></rect><rect x="25" y="35" width="10" height="10"></rect><rect x="25" y="45" width="10" height="10"></rect><rect x="25" y="65" width="10" height="10"></rect><rect x="25" y="85" width="10" height="10"></rect><rect x="25" y="95" width="10" height="10"></rect><rect x="25" y="105" width="10" height="10"></rect><rect x="25" y="115" width="10" height="10"></rect><rect x="25" y="135" width="10" height="10"></rect><rect x="25" y="155" width="10" height="10"></rect><rect x="25" y="175" width="10" height="10"></rect><rect x="25" y="185" width="10" height="10"></rect><rect x="25" y="225" width="10" height="10"></rect><rect x="25" y="245" width="10" height="10"></rect><rect x="25" y="255" width="10" height="10"></rect><rect x="25" y="265" width="10" height="10"></rect><rect x="25" y="285" width="10" height="10"></rect><rect x="35" y="5" width="10" height="10"></rect><rect x="35" y="25" width="10" height="10"></rect><rect x="35" y="35" width="10" height="10"></rect><rect x="35" y="45" width="10" height="10"></rect><rect x="35" y="65" width="10" height="10"></rect><rect x="35" y="85" width="10" height="10"></rect><rect x="35" y="95" width="10" height="10"></rect><rect x="35" y="135" width="10" height="10"></rect><rect x="35" y="145" width="10" height="10"></rect><rect x="35" y="155" width="10" height="10"></rect><rect x="35" y="165" width="10" height="10"></rect><rect x="35" y="175" width="10" height="10"></rect><rect x="35" y="195" width="10" height="10"></rect><rect x="35" y="205" width="10" height="10"></rect><rect x="35" y="225" width="10" height="10"></rect><rect x="35" y="245" width="10" height="10"></rect><rect x="35" y="255" width="10" height="10"></rect><rect x="35" y="265" width="10" height="10"></rect><rect x="35" y="285" width="10" height="10"></rect><rect x="45" y="5" width="10" height="10"></rect><rect x="45" y="25" width="10" height="10"></rect><rect x="45" y="35" width="10" height="10"></rect><rect x="45" y="45" width="10" height="10"></rect><rect x="45" y="65" width="10" height="10"></rect><rect x="45" y="85" width="10" height="10"></rect><rect x="45" y="125" width="10" height="10"></rect><rect x="45" y="135" width="10" height="10"></rect><rect x="45" y="155" width="10" height="10"></rect><rect x="45" y="165" width="10" height="10"></rect><rect x="45" y="195" width="10" height="10"></rect><rect x="45" y="225" width="10" height="10"></rect><rect x="45" y="245" width="10" height="10"></rect><rect x="45" y="255" width="10" height="10"></rect><rect x="45" y="265" width="10" height="10"></rect><rect x="45" y="285" width="10" height="10"></rect><rect x="55" y="5" width="10" height="10"></rect><rect x="55" y="65" width="10" height="10"></rect><rect x="55" y="95" width="10" height="10"></rect><rect x="55" y="125" width="10" height="10"></rect><rect x="55" y="155" width="10" height="10"></rect><rect x="55" y="165" width="10" height="10"></rect><rect x="55" y="195" width="10" height="10"></rect><rect x="55" y="205" width="10" height="10"></rect><rect x="55" y="225" width="10" height="10"></rect><rect x="55" y="285" width="10" height="10"></rect><rect x="65" y="5" width="10" height="10"></rect><rect x="65" y="15" width="10" height="10"></rect><rect x="65" y="25" width="10" height="10"></rect><rect x="65" y="35" width="10" height="10"></rect><rect x="65" y="45" width="10" height="10"></rect><rect x="65" y="55" width="10" height="10"></rect><rect x="65" y="65" width="10" height="10"></rect><rect x="65" y="85" width="10" height="10"></rect><rect x="65" y="105" width="10" height="10"></rect><rect x="65" y="125" width="10" height="10"></rect><rect x="65" y="145" width="10" height="10"></rect><rect x="65" y="165" width="10" height="10"></rect><rect x="65" y="185" width="10" height="10"></rect><rect x="65" y="205" width="10" height="10"></rect><rect x="65" y="225" width="10" height="10"></rect><rect x="65" y="235" width="10" height="10"></rect><rect x="65" y="245" width="10" height="10"></rect><rect x="65" y="255" width="10" height="10"></rect><rect x="65" y="265" width="10" height="10"></rect><rect x="65" y="275" width="10" height="10"></rect><rect x="65" y="285" width="10" height="10"></rect><rect x="75" y="85" width="10" height="10"></rect><rect x="75" y="155" width="10" height="10"></rect><rect x="75" y="185" width="10" height="10"></rect><rect x="75" y="195" width="10" height="10"></rect><rect x="75" y="205" width="10" height="10"></rect><rect x="85" y="15" width="10" height="10"></rect><rect x="85" y="35" width="10" height="10"></rect><rect x="85" y="55" width="10" height="10"></rect><rect x="85" y="65" width="10" height="10"></rect><rect x="85" y="85" width="10" height="10"></rect><rect x="85" y="105" width="10" height="10"></rect><rect x="85" y="115" width="10" height="10"></rect><rect x="85" y="135" width="10" height="10"></rect><rect x="85" y="155" width="10" height="10"></rect><rect x="85" y="215" width="10" height="10"></rect><rect x="85" y="225" width="10" height="10"></rect><rect x="85" y="245" width="10" height="10"></rect><rect x="85" y="255" width="10" height="10"></rect><rect x="85" y="265" width="10" height="10"></rect><rect x="85" y="275" width="10" height="10"></rect><rect x="85" y="285" width="10" height="10"></rect><rect x="95" y="5" width="10" height="10"></rect><rect x="95" y="15" width="10" height="10"></rect><rect x="95" y="25" width="10" height="10"></rect><rect x="95" y="35" width="10" height="10"></rect><rect x="95" y="85" width="10" height="10"></rect><rect x="95" y="95" width="10" height="10"></rect><rect x="95" y="105" width="10" height="10"></rect><rect x="95" y="115" width="10" height="10"></rect><rect x="95" y="125" width="10" height="10"></rect><rect x="95" y="145" width="10" height="10"></rect><rect x="95" y="185" width="10" height="10"></rect><rect x="95" y="205" width="10" height="10"></rect><rect x="95" y="215" width="10" height="10"></rect><rect x="95" y="225" width="10" height="10"></rect><rect x="95" y="285" width="10" height="10"></rect><rect x="105" y="25" width="10" height="10"></rect><rect x="105" y="45" width="10" height="10"></rect><rect x="105" y="55" width="10" height="10"></rect><rect x="105" y="65" width="10" height="10"></rect><rect x="105" y="85" width="10" height="10"></rect><rect x="105" y="115" width="10" height="10"></rect><rect x="105" y="135" width="10" height="10"></rect><rect x="105" y="145" width="10" height="10"></rect><rect x="105" y="155" width="10" height="10"></rect><rect x="105" y="175" width="10" height="10"></rect><rect x="105" y="195" width="10" height="10"></rect><rect x="105" y="215" width="10" height="10"></rect><rect x="105" y="235" width="10" height="10"></rect><rect x="105" y="245" width="10" height="10"></rect><rect x="105" y="265" width="10" height="10"></rect><rect x="105" y="275" width="10" height="10"></rect><rect x="105" y="285" width="10" height="10"></rect><rect x="115" y="15" width="10" height="10"></rect><rect x="115" y="25" width="10" height="10"></rect><rect x="115" y="35" width="10" height="10"></rect><rect x="115" y="105" width="10" height="10"></rect><rect x="115" y="115" width="10" height="10"></rect><rect x="115" y="125" width="10" height="10"></rect><rect x="115" y="185" width="10" height="10"></rect><rect x="115" y="195" width="10" height="10"></rect><rect x="115" y="205" width="10" height="10"></rect><rect x="115" y="265" width="10" height="10"></rect><rect x="115" y="275" width="10" height="10"></rect><rect x="115" y="285" width="10" height="10"></rect><rect x="125" y="15" width="10" height="10"></rect><rect x="125" y="45" width="10" height="10"></rect><rect x="125" y="65" width="10" height="10"></rect><rect x="125" y="75" width="10" height="10"></rect><rect x="125" y="85" width="10" height="10"></rect><rect x="125" y="105" width="10" height="10"></rect><rect x="125" y="135" width="10" height="10"></rect><rect x="125" y="155" width="10" height="10"></rect><rect x="125" y="165" width="10" height="10"></rect><rect x="125" y="185" width="10" height="10"></rect><rect x="125" y="215" width="10" height="10"></rect><rect x="125" y="235" width="10" height="10"></rect><rect x="125" y="245" width="10" height="10"></rect><rect x="125" y="265" width="10" height="10"></rect><rect x="125" y="285" width="10" height="10"></rect><rect x="135" y="5" width="10" height="10"></rect><rect x="135" y="55" width="10" height="10"></rect><rect x="135" y="125" width="10" height="10"></rect><rect x="135" y="135" width="10" height="10"></rect><rect x="135" y="165" width="10" height="10"></rect><rect x="135" y="175" width="10" height="10"></rect><rect x="135" y="225" width="10" height="10"></rect><rect x="135" y="255" width="10" height="10"></rect><rect x="145" y="5" width="10" height="10"></rect><rect x="145" y="25" width="10" height="10"></rect><rect x="145" y="35" width="10" height="10"></rect><rect x="145" y="55" width="10" height="10"></rect><rect x="145" y="65" width="10" height="10"></rect><rect x="145" y="75" width="10" height="10"></rect><rect x="145" y="85" width="10" height="10"></rect><rect x="145" y="95" width="10" height="10"></rect><rect x="145" y="135" width="10" height="10"></rect><rect x="145" y="155" width="10" height="10"></rect><rect x="145" y="165" width="10" height="10"></rect><rect x="145" y="185" width="10" height="10"></rect><rect x="145" y="205" width="10" height="10"></rect><rect x="145" y="215" width="10" height="10"></rect><rect x="145" y="225" width="10" height="10"></rect><rect x="145" y="245" width="10" height="10"></rect><rect x="145" y="275" width="10" height="10"></rect><rect x="155" y="15" width="10" height="10"></rect><rect x="155" y="35" width="10" height="10"></rect><rect x="155" y="55" width="10" height="10"></rect><rect x="155" y="75" width="10" height="10"></rect><rect x="155" y="85" width="10" height="10"></rect><rect x="155" y="95" width="10" height="10"></rect><rect x="155" y="105" width="10" height="10"></rect><rect x="155" y="145" width="10" height="10"></rect><rect x="155" y="165" width="10" height="10"></rect><rect x="155" y="185" width="10" height="10"></rect><rect x="155" y="195" width="10" height="10"></rect><rect x="155" y="225" width="10" height="10"></rect><rect x="155" y="245" width="10" height="10"></rect><rect x="155" y="265" width="10" height="10"></rect><rect x="165" y="45" width="10" height="10"></rect><rect x="165" y="65" width="10" height="10"></rect><rect x="165" y="75" width="10" height="10"></rect><rect x="165" y="85" width="10" height="10"></rect><rect x="165" y="95" width="10" height="10"></rect><rect x="165" y="105" width="10" height="10"></rect><rect x="165" y="135" width="10" height="10"></rect><rect x="165" y="145" width="10" height="10"></rect><rect x="165" y="155" width="10" height="10"></rect><rect x="165" y="175" width="10" height="10"></rect><rect x="165" y="185" width="10" height="10"></rect><rect x="165" y="195" width="10" height="10"></rect><rect x="165" y="205" width="10" height="10"></rect><rect x="165" y="235" width="10" height="10"></rect><rect x="165" y="245" width="10" height="10"></rect><rect x="165" y="255" width="10" height="10"></rect><rect x="165" y="265" width="10" height="10"></rect><rect x="165" y="275" width="10" height="10"></rect><rect x="165" y="285" width="10" height="10"></rect><rect x="175" y="5" width="10" height="10"></rect><rect x="175" y="35" width="10" height="10"></rect><rect x="175" y="45" width="10" height="10"></rect><rect x="175" y="55" width="10" height="10"></rect><rect x="175" y="85" width="10" height="10"></rect><rect x="175" y="105" width="10" height="10"></rect><rect x="175" y="125" width="10" height="10"></rect><rect x="175" y="165" width="10" height="10"></rect><rect x="175" y="205" width="10" height="10"></rect><rect x="175" y="225" width="10" height="10"></rect><rect x="175" y="245" width="10" height="10"></rect><rect x="175" y="255" width="10" height="10"></rect><rect x="175" y="285" width="10" height="10"></rect><rect x="185" y="5" width="10" height="10"></rect><rect x="185" y="35" width="10" height="10"></rect><rect x="185" y="45" width="10" height="10"></rect><rect x="185" y="65" width="10" height="10"></rect><rect x="185" y="135" width="10" height="10"></rect><rect x="185" y="145" width="10" height="10"></rect><rect x="185" y="195" width="10" height="10"></rect><rect x="185" y="215" width="10" height="10"></rect><rect x="185" y="225" width="10" height="10"></rect><rect x="185" y="255" width="10" height="10"></rect><rect x="185" y="265" width="10" height="10"></rect><rect x="185" y="275" width="10" height="10"></rect><rect x="185" y="285" width="10" height="10"></rect><rect x="195" y="5" width="10" height="10"></rect><rect x="195" y="25" width="10" height="10"></rect><rect x="195" y="35" width="10" height="10"></rect><rect x="195" y="45" width="10" height="10"></rect><rect x="195" y="75" width="10" height="10"></rect><rect x="195" y="95" width="10" height="10"></rect><rect x="195" y="115" width="10" height="10"></rect><rect x="195" y="125" width="10" height="10"></rect><rect x="195" y="135" width="10" height="10"></rect><rect x="195" y="175" width="10" height="10"></rect><rect x="195" y="195" width="10" height="10"></rect><rect x="195" y="225" width="10" height="10"></rect><rect x="195" y="235" width="10" height="10"></rect><rect x="195" y="255" width="10" height="10"></rect><rect x="195" y="265" width="10" height="10"></rect><rect x="195" y="275" width="10" height="10"></rect><rect x="195" y="285" width="10" height="10"></rect><rect x="205" y="5" width="10" height="10"></rect><rect x="205" y="15" width="10" height="10"></rect><rect x="205" y="25" width="10" height="10"></rect><rect x="205" y="45" width="10" height="10"></rect><rect x="205" y="55" width="10" height="10"></rect><rect x="205" y="65" width="10" height="10"></rect><rect x="205" y="95" width="10" height="10"></rect><rect x="205" y="115" width="10" height="10"></rect><rect x="205" y="145" width="10" height="10"></rect><rect x="205" y="155" width="10" height="10"></rect><rect x="205" y="175" width="10" height="10"></rect><rect x="205" y="205" width="10" height="10"></rect><rect x="205" y="215" width="10" height="10"></rect><rect x="205" y="225" width="10" height="10"></rect><rect x="205" y="235" width="10" height="10"></rect><rect x="205" y="245" width="10" height="10"></rect><rect x="205" y="275" width="10" height="10"></rect><rect x="215" y="85" width="10" height="10"></rect><rect x="215" y="105" width="10" height="10"></rect><rect x="215" y="135" width="10" height="10"></rect><rect x="215" y="205" width="10" height="10"></rect><rect x="215" y="245" width="10" height="10"></rect><rect x="215" y="285" width="10" height="10"></rect><rect x="225" y="5" width="10" height="10"></rect><rect x="225" y="15" width="10" height="10"></rect><rect x="225" y="25" width="10" height="10"></rect><rect x="225" y="35" width="10" height="10"></rect><rect x="225" y="45" width="10" height="10"></rect><rect x="225" y="55" width="10" height="10"></rect><rect x="225" y="65" width="10" height="10"></rect><rect x="225" y="95" width="10" height="10"></rect><rect x="225" y="105" width="10" height="10"></rect><rect x="225" y="135" width="10" height="10"></rect><rect x="225" y="145" width="10" height="10"></rect><rect x="225" y="155" width="10" height="10"></rect><rect x="225" y="175" width="10" height="10"></rect><rect x="225" y="205" width="10" height="10"></rect><rect x="225" y="225" width="10" height="10"></rect><rect x="225" y="245" width="10" height="10"></rect><rect x="225" y="265" width="10" height="10"></rect><rect x="235" y="5" width="10" height="10"></rect><rect x="235" y="65" width="10" height="10"></rect><rect x="235" y="85" width="10" height="10"></rect><rect x="235" y="95" width="10" height="10"></rect><rect x="235" y="115" width="10" height="10"></rect><rect x="235" y="145" width="10" height="10"></rect><rect x="235" y="155" width="10" height="10"></rect><rect x="235" y="165" width="10" height="10"></rect><rect x="235" y="175" width="10" height="10"></rect><rect x="235" y="185" width="10" height="10"></rect><rect x="235" y="195" width="10" height="10"></rect><rect x="235" y="205" width="10" height="10"></rect><rect x="235" y="245" width="10" height="10"></rect><rect x="235" y="255" width="10" height="10"></rect><rect x="235" y="265" width="10" height="10"></rect><rect x="235" y="275" width="10" height="10"></rect><rect x="235" y="285" width="10" height="10"></rect><rect x="245" y="5" width="10" height="10"></rect><rect x="245" y="25" width="10" height="10"></rect><rect x="245" y="35" width="10" height="10"></rect><rect x="245" y="45" width="10" height="10"></rect><rect x="245" y="65" width="10" height="10"></rect><rect x="245" y="95" width="10" height="10"></rect><rect x="245" y="135" width="10" height="10"></rect><rect x="245" y="155" width="10" height="10"></rect><rect x="245" y="175" width="10" height="10"></rect><rect x="245" y="195" width="10" height="10"></rect><rect x="245" y="205" width="10" height="10"></rect><rect x="245" y="215" width="10" height="10"></rect><rect x="245" y="225" width="10" height="10"></rect><rect x="245" y="235" width="10" height="10"></rect><rect x="245" y="245" width="10" height="10"></rect><rect x="245" y="265" width="10" height="10"></rect><rect x="245" y="285" width="10" height="10"></rect><rect x="255" y="5" width="10" height="10"></rect><rect x="255" y="25" width="10" height="10"></rect><rect x="255" y="35" width="10" height="10"></rect><rect x="255" y="45" width="10" height="10"></rect><rect x="255" y="65" width="10" height="10"></rect><rect x="255" y="85" width="10" height="10"></rect><rect x="255" y="115" width="10" height="10"></rect><rect x="255" y="125" width="10" height="10"></rect><rect x="255" y="145" width="10" height="10"></rect><rect x="255" y="165" width="10" height="10"></rect><rect x="255" y="215" width="10" height="10"></rect><rect x="255" y="225" width="10" height="10"></rect><rect x="255" y="255" width="10" height="10"></rect><rect x="255" y="265" width="10" height="10"></rect><rect x="255" y="275" width="10" height="10"></rect><rect x="255" y="285" width="10" height="10"></rect><rect x="265" y="5" width="10" height="10"></rect><rect x="265" y="25" width="10" height="10"></rect><rect x="265" y="35" width="10" height="10"></rect><rect x="265" y="45" width="10" height="10"></rect><rect x="265" y="65" width="10" height="10"></rect><rect x="265" y="125" width="10" height="10"></rect><rect x="265" y="145" width="10" height="10"></rect><rect x="265" y="165" width="10" height="10"></rect><rect x="265" y="175" width="10" height="10"></rect><rect x="265" y="185" width="10" height="10"></rect><rect x="265" y="205" width="10" height="10"></rect><rect x="265" y="215" width="10" height="10"></rect><rect x="265" y="225" width="10" height="10"></rect><rect x="265" y="245" width="10" height="10"></rect><rect x="265" y="255" width="10" height="10"></rect><rect x="265" y="265" width="10" height="10"></rect><rect x="265" y="285" width="10" height="10"></rect><rect x="275" y="5" width="10" height="10"></rect><rect x="275" y="65" width="10" height="10"></rect><rect x="275" y="85" width="10" height="10"></rect><rect x="275" y="115" width="10" height="10"></rect><rect x="275" y="155" width="10" height="10"></rect><rect x="275" y="195" width="10" height="10"></rect><rect x="275" y="205" width="10" height="10"></rect><rect x="275" y="215" width="10" height="10"></rect><rect x="275" y="245" width="10" height="10"></rect><rect x="275" y="255" width="10" height="10"></rect><rect x="275" y="265" width="10" height="10"></rect><rect x="275" y="275" width="10" height="10"></rect><rect x="285" y="5" width="10" height="10"></rect><rect x="285" y="15" width="10" height="10"></rect><rect x="285" y="25" width="10" height="10"></rect><rect x="285" y="35" width="10" height="10"></rect><rect x="285" y="45" width="10" height="10"></rect><rect x="285" y="55" width="10" height="10"></rect><rect x="285" y="65" width="10" height="10"></rect><rect x="285" y="95" width="10" height="10"></rect><rect x="285" y="135" width="10" height="10"></rect><rect x="285" y="175" width="10" height="10"></rect><rect x="285" y="205" width="10" height="10"></rect><rect x="285" y="215" width="10" height="10"></rect><rect x="285" y="235" width="10" height="10"></rect><rect x="285" y="245" width="10" height="10"></rect><rect x="285" y="255" width="10" height="10"></rect></clippath></defs><rect x="5" y="5" height="290" width="290" clip-path="url(#clip-path-dot-color)" color="#000"></rect></svg>
